<svg width="801" height="238" viewBox="0 0 801 238" fill="none" xmlns="http://www.w3.org/2000/svg">
<path d="M794.906 209.109C794.906 212.093 794.317 215.048 793.174 217.805C792.031 220.562 790.356 223.066 788.244 225.175C786.132 227.284 783.626 228.956 780.867 230.096C778.108 231.236 775.152 231.821 772.167 231.818H28.0473C22.0162 231.824 16.2295 229.435 11.9598 225.177C7.69015 220.918 5.28716 215.139 5.2793 209.109V28.0156C5.28715 21.9833 7.6892 16.2007 11.958 11.9375C16.2268 7.67429 22.0134 5.27891 28.0473 5.27734H772.161C775.148 5.27734 778.105 5.86553 780.864 7.0083C783.623 8.15108 786.13 9.82606 788.242 11.9376C790.353 14.0491 792.028 16.5558 793.17 19.3145C794.313 22.0732 794.9 25.0298 794.9 28.0156L794.906 209.109Z" fill="white"/>
<path d="M772.166 237.1H28.0463C20.6167 237.099 13.4911 234.151 8.23306 228.903C2.97506 223.655 0.0141366 216.536 0 209.109L0 28.0211C0.0109911 20.5897 2.96996 13.4661 8.22779 8.21304C13.4856 2.95993 20.613 0.00627235 28.0463 0L772.16 0C779.593 0.00940211 786.718 2.96407 791.975 8.2165C797.233 13.4689 800.192 20.5907 800.207 28.0211V209.109C800.218 224.548 787.616 237.1 772.166 237.1Z" fill="#A6A6A6"/>
<path d="M794.906 209.109C794.906 212.093 794.317 215.048 793.174 217.805C792.031 220.562 790.356 223.066 788.244 225.175C786.132 227.284 783.626 228.956 780.867 230.096C778.108 231.236 775.152 231.821 772.167 231.818H28.0473C22.0162 231.824 16.2295 229.435 11.9598 225.177C7.69015 220.918 5.28716 215.139 5.2793 209.109V28.0156C5.28715 21.9833 7.6892 16.2007 11.958 11.9375C16.2268 7.67429 22.0134 5.27891 28.0473 5.27734H772.161C775.148 5.27734 778.105 5.86553 780.864 7.0083C783.623 8.15108 786.13 9.82606 788.242 11.9376C790.353 14.0491 792.028 16.5558 793.17 19.3145C794.313 22.0732 794.9 25.0298 794.9 28.0156L794.906 209.109Z" fill="black"/>
<path d="M178.681 117.304C178.509 98.1943 194.332 88.8974 195.055 88.4646C186.094 75.4027 172.204 73.618 167.323 73.4757C155.658 72.2484 144.342 80.4543 138.399 80.4543C132.338 80.4543 123.187 73.5943 113.324 73.7959C100.632 73.9915 88.7592 81.3377 82.2472 92.7454C68.8083 116.005 78.8312 150.187 91.7067 168.988C98.1475 178.202 105.674 188.477 115.524 188.116C125.162 187.724 128.762 181.979 140.392 181.979C151.915 181.979 155.296 188.116 165.342 187.884C175.686 187.724 182.197 178.635 188.413 169.344C195.856 158.796 198.845 148.396 198.964 147.863C198.726 147.78 178.882 140.202 178.681 117.304ZM159.702 61.1075C164.886 54.627 168.432 45.8103 167.448 36.8633C159.945 37.1953 150.563 42.0513 145.16 48.3895C140.38 53.9748 136.11 63.1294 137.213 71.7385C145.641 72.367 154.293 67.4873 159.702 61.1075Z" fill="white"/>
<path d="M772.167 0H373.594L529.708 237.1H772.167C779.598 237.094 786.724 234.142 791.981 228.891C797.239 223.641 800.199 216.52 800.213 209.091V28.0211C800.201 20.5902 797.241 13.4675 791.984 8.21477C786.726 2.962 779.6 0.00783783 772.167 0Z" fill="url(#paint0_linear_100_3)"/>
<path d="M318.272 186.792H304.803L297.426 163.615H271.781L264.753 186.792H251.641L277.054 107.887H292.746L318.272 186.792ZM295.202 153.891L288.53 133.287C287.824 131.182 286.495 126.226 284.55 118.423H284.313C283.53 121.779 282.279 126.736 280.565 133.287L274.005 153.891H295.202ZM383.498 157.644C383.498 167.32 380.871 174.969 375.61 180.584C370.901 185.582 365.048 188.078 358.067 188.078C350.529 188.078 345.109 185.392 341.817 180.009V209.862H329.173V148.596C329.173 142.519 329.013 136.287 328.704 129.896H339.824L340.53 138.914H340.767C344.984 132.119 351.383 128.722 359.971 128.722C366.684 128.722 372.289 131.372 376.773 136.679C381.25 141.997 383.498 148.982 383.498 157.644ZM370.617 158.107C370.617 152.569 369.371 148.003 366.868 144.404C364.134 140.663 360.463 138.789 355.861 138.789C352.741 138.789 349.907 139.833 347.374 141.89C344.836 143.966 343.175 146.675 342.398 150.031C342.051 151.286 341.854 152.578 341.811 153.879V163.372C341.811 167.504 343.08 170.997 345.619 173.854C348.157 176.7 351.454 178.129 355.511 178.129C360.273 178.129 363.98 176.285 366.631 172.627C369.288 168.957 370.617 164.119 370.617 158.107ZM448.955 157.644C448.955 167.32 446.328 174.969 441.067 180.584C436.353 185.582 430.505 188.078 423.518 188.078C415.981 188.078 410.56 185.392 407.268 180.009V209.862H394.624V148.596C394.624 142.519 394.464 136.287 394.156 129.896H405.276L405.981 138.914H406.219C410.429 132.119 416.829 128.722 425.422 128.722C432.13 128.722 437.734 131.372 442.23 136.679C446.702 141.997 448.955 148.982 448.955 157.644ZM436.068 158.107C436.068 152.569 434.816 148.003 432.314 144.404C429.58 140.663 425.92 138.789 421.318 138.789C418.199 138.789 415.364 139.833 412.819 141.89C410.281 143.966 408.626 146.675 407.85 150.031C407.464 151.596 407.256 152.871 407.256 153.879V163.372C407.256 167.504 408.532 170.997 411.058 173.854C413.596 176.694 416.894 178.129 420.962 178.129C425.731 178.129 429.437 176.285 432.082 172.627C434.739 168.957 436.068 164.119 436.068 158.107ZM522.14 164.658C522.14 171.376 519.792 176.837 515.124 181.052C509.988 185.653 502.818 187.96 493.625 187.96C485.133 187.96 478.324 186.323 473.188 183.045L476.112 172.508C481.657 175.793 487.748 177.43 494.379 177.43C499.147 177.43 502.854 176.351 505.499 174.21C508.15 172.064 509.49 169.194 509.49 165.613C509.49 162.405 508.381 159.719 506.204 157.531C504.016 155.35 500.398 153.316 495.316 151.448C481.497 146.296 474.582 138.76 474.582 128.846C474.582 122.372 477.025 117.071 481.9 112.927C486.775 108.788 493.24 106.719 501.282 106.719C508.464 106.719 514.448 107.97 519.199 110.466L516.026 120.771C511.554 118.352 506.507 117.142 500.861 117.142C496.401 117.142 492.902 118.239 490.399 120.421C488.294 122.372 487.226 124.749 487.226 127.572C487.226 130.684 488.442 133.269 490.862 135.297C492.961 137.165 496.792 139.199 502.332 141.38C509.128 144.12 514.122 147.31 517.319 150.974C520.539 154.638 522.14 159.209 522.14 164.658ZM564.053 139.382H550.115V167.006C550.115 174.032 552.571 177.536 557.493 177.536C559.753 177.536 561.627 177.347 563.11 176.949L563.459 186.549C560.969 187.48 557.689 187.948 553.626 187.948C548.633 187.948 544.73 186.424 541.913 183.377C539.108 180.329 537.696 175.224 537.696 168.038V139.359H529.393V129.872H537.696V119.455L550.115 115.707V129.872H564.053V139.382ZM626.811 157.875C626.811 166.621 624.309 173.801 619.315 179.416C614.09 185.197 607.139 188.078 598.474 188.078C590.112 188.078 583.464 185.309 578.506 179.778C573.548 174.234 571.069 167.249 571.069 158.824C571.069 150.007 573.631 142.786 578.737 137.171C583.855 131.55 590.747 128.74 599.411 128.74C607.762 128.74 614.469 131.514 619.546 137.052C624.397 142.424 626.811 149.361 626.811 157.875ZM613.704 158.166C613.704 152.954 612.578 148.484 610.318 144.742C607.667 140.224 603.871 137.965 598.955 137.965C593.89 137.965 590.005 140.224 587.36 144.742C585.095 148.484 583.968 153.031 583.968 158.403C583.968 163.621 585.095 168.103 587.36 171.833C590.094 176.351 593.908 178.61 598.848 178.61C603.681 178.61 607.471 176.303 610.211 171.72C612.536 167.89 613.704 163.389 613.704 158.166ZM667.929 141.013C666.614 140.776 665.28 140.658 663.943 140.663C659.495 140.663 656.056 142.335 653.636 145.703C651.536 148.667 650.481 152.415 650.481 156.939V186.792H637.836V147.814C637.848 141.841 637.725 135.869 637.469 129.902H648.482L648.945 140.788H649.295C650.635 137.046 652.734 134.028 655.617 131.769C658.255 129.795 661.461 128.726 664.756 128.722C665.924 128.722 666.98 128.805 667.917 128.953L667.929 141.013ZM724.478 155.652C724.51 157.574 724.355 159.494 724.016 161.385H686.083C686.225 167.006 688.064 171.311 691.586 174.275C694.783 176.92 698.917 178.248 703.993 178.248C709.61 178.248 714.734 177.358 719.342 175.562L721.323 184.331C715.938 186.679 709.58 187.847 702.244 187.847C693.419 187.847 686.492 185.25 681.451 180.068C676.422 174.88 673.901 167.907 673.901 159.174C673.901 150.6 676.244 143.456 680.935 137.758C685.846 131.674 692.482 128.633 700.832 128.633C709.035 128.633 715.244 131.674 719.461 137.758C722.8 142.578 724.478 148.555 724.478 155.652ZM712.421 152.373C712.51 148.62 711.68 145.389 709.966 142.655C707.777 139.133 704.409 137.378 699.895 137.378C695.762 137.378 692.393 139.092 689.831 142.531C687.726 145.264 686.474 148.549 686.089 152.361L712.421 152.373Z" fill="white"/>
<path d="M268.133 79.9918C264.616 79.9918 261.573 79.8199 259.041 79.5293V41.3813C262.583 40.8343 266.162 40.5647 269.746 40.5749C284.247 40.5749 290.924 47.7077 290.924 59.3347C290.924 72.7464 283.037 79.9918 268.133 79.9918ZM270.256 45.4665C268.299 45.4665 266.632 45.585 265.25 45.8696V74.869C265.998 74.9876 267.433 75.041 269.449 75.041C278.95 75.041 284.359 69.6336 284.359 59.5067C284.359 50.4766 279.466 45.4665 270.256 45.4665ZM311.735 80.2823C303.563 80.2823 298.267 74.1813 298.267 65.8983C298.267 57.2654 303.676 51.111 312.198 51.111C320.252 51.111 325.667 56.9215 325.667 65.4417C325.667 74.1813 320.086 80.2823 311.735 80.2823ZM311.973 55.6527C307.483 55.6527 304.607 59.8505 304.607 65.7204C304.607 71.4776 307.542 75.6754 311.913 75.6754C316.284 75.6754 319.22 71.1871 319.22 65.6018C319.22 59.9098 316.344 55.6527 311.973 55.6527ZM372.27 51.6861L363.522 79.6479H357.823L354.199 67.5051C353.298 64.5348 352.548 61.521 351.951 58.475H351.833C351.376 61.5226 350.51 64.5761 349.591 67.5051L345.736 79.6479H339.977L331.746 51.6861H338.133L341.3 64.9792C342.047 68.1454 342.676 71.1337 343.198 73.956H343.316C343.773 71.6021 344.52 68.6612 345.617 65.0385L349.591 51.6921H354.656L358.457 64.7539C359.377 67.9201 360.124 71.027 360.705 73.9619H360.871C361.275 71.0863 361.909 68.0327 362.769 64.7539L366.167 51.6921L372.27 51.6861ZM404.474 79.6479H398.258V63.5918C398.258 58.6469 396.361 56.1685 392.618 56.1685C388.935 56.1685 386.403 59.3347 386.403 63.0167V79.6479H380.188V59.6786C380.188 57.2061 380.128 54.5558 379.956 51.6802H385.424L385.715 55.9966H385.887C387.559 53.0083 390.952 51.111 394.753 51.111C400.625 51.111 404.48 55.5994 404.48 62.904L404.474 79.6479ZM421.614 79.6479H415.392V38.8555H421.614V79.6479ZM444.275 80.2823C436.108 80.2823 430.806 74.1813 430.806 65.8983C430.806 57.2654 436.215 51.111 444.731 51.111C452.791 51.111 458.2 56.9215 458.2 65.4417C458.206 74.1813 452.619 80.2823 444.275 80.2823ZM444.506 55.6527C440.017 55.6527 437.14 59.8505 437.14 65.7204C437.14 71.4776 440.082 75.6754 444.441 75.6754C448.818 75.6754 451.747 71.1871 451.747 65.6018C451.753 59.9098 448.883 55.6527 444.506 55.6527ZM482.706 79.6479L482.255 76.4284H482.089C480.191 79.0194 477.421 80.2823 473.911 80.2823C468.899 80.2823 465.341 76.7723 465.341 72.0527C465.341 65.1512 471.325 61.5818 481.686 61.5818V61.066C481.686 57.384 479.734 55.5401 475.88 55.5401C473.122 55.5401 470.702 56.2338 468.573 57.6153L467.31 53.5301C469.895 51.9174 473.122 51.111 476.911 51.111C484.218 51.111 487.907 54.9649 487.907 62.6787V72.9776C487.907 75.7999 488.032 77.9878 488.31 79.6539L482.706 79.6479ZM481.852 65.7204C474.948 65.7204 471.485 67.3924 471.485 71.359C471.485 74.2939 473.27 75.7288 475.749 75.7288C478.91 75.7288 481.852 73.3156 481.852 70.0368V65.7204ZM518.088 79.6479L517.798 75.1596H517.626C515.841 78.551 512.84 80.2823 508.647 80.2823C501.903 80.2823 496.91 74.3532 496.91 66.0109C496.91 57.2654 502.087 51.1051 509.157 51.1051C512.899 51.1051 515.55 52.368 517.045 54.9056H517.169V38.8555H523.39V72.112C523.39 74.8157 523.456 77.3474 523.622 79.6479H518.088ZM517.169 63.1946C517.169 59.2813 514.577 55.9432 510.622 55.9432C506.013 55.9432 503.196 60.0284 503.196 65.7797C503.196 71.4183 506.12 75.2782 510.497 75.2782C514.405 75.2782 517.169 71.8808 517.169 67.8549V63.1946ZM562.836 80.2823C554.669 80.2823 549.373 74.1813 549.373 65.8983C549.373 57.2654 554.782 51.111 563.298 51.111C571.358 51.111 576.767 56.9215 576.767 65.4417C576.773 74.1813 571.192 80.2823 562.836 80.2823ZM563.067 55.6527C558.583 55.6527 555.707 59.8505 555.707 65.7204C555.707 71.4776 558.643 75.6754 563.008 75.6754C567.384 75.6754 570.314 71.1871 570.314 65.6018C570.326 59.9098 567.45 55.6527 563.067 55.6527ZM610.192 79.6479H603.971V63.5918C603.971 58.6469 602.073 56.1685 598.331 56.1685C594.648 56.1685 592.121 59.3347 592.121 63.0167V79.6479H585.9V59.6786C585.9 57.2061 585.841 54.5558 585.669 51.6802H591.137L591.427 55.9966H591.599C593.266 53.0083 596.664 51.1051 600.46 51.1051C606.331 51.1051 610.192 55.5934 610.192 62.8981V79.6479ZM652.01 56.3464H645.172V69.9241C645.172 73.3808 646.37 75.1062 648.789 75.1062C649.886 75.1062 650.806 74.9876 651.547 74.8157L651.719 79.5353C650.515 79.9977 648.902 80.229 646.897 80.229C641.999 80.229 639.069 77.5253 639.069 70.4459V56.3464H634.989V51.6861H639.069V46.5633L645.172 44.7194V51.6802H652.01V56.3464ZM684.913 79.6479H678.704V63.7104C678.704 58.7062 676.812 56.1745 673.064 56.1745C669.843 56.1745 666.842 58.3623 666.842 62.7914V79.6479H660.633V38.8555H666.842V55.6527H666.967C668.924 52.6051 671.759 51.1051 675.377 51.1051C681.295 51.1051 684.913 55.7061 684.913 63.0167V79.6479ZM718.623 67.1612H699.971C700.09 72.4559 703.595 75.4442 708.784 75.4442C711.542 75.4442 714.08 74.9817 716.322 74.122L717.289 78.4384C714.644 79.5886 711.53 80.1638 707.907 80.1638C699.159 80.1638 693.981 74.6378 693.981 66.0702C693.981 57.4967 699.283 51.0517 707.207 51.0517C714.353 51.0517 718.837 56.3464 718.837 64.3448C718.877 65.2887 718.805 66.2341 718.623 67.1612ZM712.924 62.7321C712.924 58.4157 710.747 55.3681 706.774 55.3681C703.203 55.3681 700.381 58.475 699.977 62.7321H712.924Z" fill="white"/>
<defs>
<linearGradient id="paint0_linear_100_3" x1="586.897" y1="237.73" x2="586.897" y2="-617.368" gradientUnits="userSpaceOnUse">
<stop stop-color="#1A1A1A" stop-opacity="0.1"/>
<stop offset="0.123" stop-color="#212121" stop-opacity="0.151"/>
<stop offset="0.308" stop-color="#353535" stop-opacity="0.227"/>
<stop offset="0.532" stop-color="#575757" stop-opacity="0.318"/>
<stop offset="0.783" stop-color="#858585" stop-opacity="0.421"/>
<stop offset="1" stop-color="#B3B3B3" stop-opacity="0.51"/>
</linearGradient>
</defs>
</svg>
